<svg width="124" height="124" viewBox="0 0 124 124" fill="none" xmlns="http://www.w3.org/2000/svg">
<path d="M44.2108 69.7502H24.19C21.5374 69.7652 18.9986 70.8295 17.1282 72.7105C15.2578 74.5915 14.208 77.1363 14.208 79.789V99.8098C14.208 102.457 15.2597 104.996 17.1317 106.868C19.0037 108.74 21.5426 109.792 24.19 109.792H44.2108C46.863 109.792 49.4073 108.742 51.2875 106.871C53.1677 105.001 54.2308 102.462 54.2445 99.8098V79.789C54.2445 77.1279 53.1874 74.5758 51.3057 72.6941C49.424 70.8124 46.8719 69.7553 44.2108 69.7553M44.2108 14.2085H24.19C22.8792 14.2085 21.5811 14.4667 20.3701 14.9683C19.159 15.47 18.0586 16.2052 17.1317 17.1322C16.2048 18.0591 15.4695 19.1595 14.9678 20.3705C14.4662 21.5816 14.208 22.8796 14.208 24.1905V44.2113C14.208 46.8635 15.258 49.4078 17.1285 51.288C18.999 53.1682 21.5379 54.2313 24.19 54.245H44.2108C46.8719 54.245 49.424 53.1879 51.3057 51.3062C53.1874 49.4245 54.2445 46.8724 54.2445 44.2113V24.1905C54.2308 21.5384 53.1677 18.9995 51.2875 17.129C49.4073 15.2585 46.863 14.2085 44.2108 14.2085ZM99.8093 14.2085H79.7885C77.1363 14.2085 74.592 15.2585 72.7118 17.129C70.8316 18.9995 69.7685 21.5384 69.7548 24.1905V44.2113C69.7562 46.872 70.8138 49.4233 72.6951 51.3047C74.5765 53.1861 77.1278 54.2436 79.7885 54.245H99.8093C102.461 54.2313 105 53.1682 106.871 51.288C108.741 49.4078 109.791 46.8635 109.791 44.2113V24.1905C109.791 21.5431 108.74 19.0041 106.868 17.1322C104.996 15.2602 102.457 14.2085 99.8093 14.2085Z" stroke="#6750A4" stroke-width="10" stroke-linecap="round" stroke-linejoin="round"/>
<path d="M89.7345 71.3882V108.154M71.3877 89.8125H108.154" stroke="#6750A4" stroke-width="10" stroke-miterlimit="10" stroke-linecap="round"/>
</svg>
