<svg width="124" height="124" viewBox="0 0 124 124" fill="none" xmlns="http://www.w3.org/2000/svg">
<g clip-path="url(#clip0_416_9956)">
<path d="M74.8144 12.4386C74.2144 9.84943 72.7192 7.55542 70.5925 5.96137C68.4659 4.36731 65.8445 3.57565 63.191 3.7261C60.5375 3.87655 58.0224 4.95942 56.0896 6.78365C54.1567 8.60787 52.9303 11.0562 52.6268 13.6966C52.3233 16.3369 52.9622 18.9997 54.4307 21.2149C55.8992 23.4301 58.103 25.0554 60.6532 25.804C63.2033 26.5526 65.936 26.3763 68.3688 25.3064C70.8017 24.2365 72.7785 22.3416 73.9503 19.9561C81.084 21.5805 87.7154 24.9159 93.2727 29.6746C98.83 34.4332 103.146 40.4723 105.849 47.271L112.727 44.5662C109.544 36.5023 104.417 29.35 97.8023 23.7451C91.1881 18.1401 83.2915 14.2562 74.8144 12.4386ZM63.8792 18.7858C63.3757 18.802 62.8741 18.7168 62.4042 18.5353C61.9342 18.3538 61.5056 18.0796 61.1437 17.7292C60.7818 17.3787 60.4941 16.9591 60.2976 16.4953C60.101 16.0314 59.9998 15.5328 59.9998 15.029C59.9998 14.5253 60.101 14.0266 60.2976 13.5628C60.4941 13.0989 60.7818 12.6793 61.1437 12.3289C61.5056 11.9784 61.9342 11.7043 62.4042 11.5228C62.8741 11.3412 63.3757 11.256 63.8792 11.2722C64.8761 11.2722 65.8321 11.6682 66.537 12.3731C67.2419 13.078 67.638 14.0341 67.638 15.031C67.638 16.0278 67.2419 16.9839 66.537 17.6888C65.8321 18.3937 64.8761 18.7858 63.8792 18.7858ZM47.3446 21.9091L44.5662 15.0348C36.5023 18.2187 29.35 23.3457 23.7451 29.9599C18.1401 36.5742 14.2562 44.4708 12.4386 52.9478C9.84943 53.5478 7.55542 55.0431 5.96137 57.1698C4.36731 59.2964 3.57565 61.9178 3.7261 64.5713C3.87655 67.2248 4.95942 69.7399 6.78365 71.6727C8.60787 73.6056 11.0562 74.8319 13.6966 75.1354C16.3369 75.4389 18.9997 74.8001 21.2149 73.3316C23.4301 71.863 25.0554 69.6592 25.804 67.1091C26.5526 64.5589 26.3763 61.8263 25.3064 59.3934C24.2365 56.9606 22.3416 54.9838 19.9561 53.8119C21.5872 46.6698 24.9335 40.0325 29.7055 34.4739C34.4775 28.9153 40.5317 24.6027 47.3446 21.9091ZM15.0271 67.6418C14.5335 67.6418 14.0447 67.5446 13.5887 67.3557C13.1326 67.1668 12.7183 66.8899 12.3692 66.5409C12.0202 66.1919 11.7433 65.7775 11.5544 65.3215C11.3656 64.8654 11.2683 64.3767 11.2683 63.8831C11.2683 63.3895 11.3656 62.9007 11.5544 62.4447C11.7433 61.9886 12.0202 61.5743 12.3692 61.2252C12.7183 60.8762 13.1326 60.5993 13.5887 60.4104C14.0447 60.2215 14.5335 60.1243 15.0271 60.1243C16.024 60.1243 16.98 60.5203 17.6849 61.2252C18.3898 61.9301 18.7858 62.8862 18.7858 63.8831C18.7858 64.88 18.3898 65.836 17.6849 66.5409C16.98 67.2458 16.024 67.6418 15.0271 67.6418ZM63.8792 101.459C61.7829 101.466 59.73 102.057 57.951 103.166C56.172 104.275 54.7373 105.857 53.8081 107.736C46.6733 106.112 40.0408 102.776 34.4828 98.0171C28.9247 93.2577 24.6081 87.2175 21.9052 80.4177L15.031 83.1961C18.2252 91.2736 23.3694 98.4348 30.0044 104.041C36.6394 109.647 44.5589 113.523 53.0563 115.324C53.5444 117.392 54.6073 119.281 56.1224 120.772C57.6375 122.263 59.5431 123.295 61.6194 123.749C63.6958 124.204 65.8584 124.063 67.8578 123.341C69.8572 122.62 71.6121 121.348 72.92 119.673C74.2279 117.997 75.0356 115.986 75.25 113.871C75.4643 111.757 75.0767 109.625 74.1316 107.721C73.1866 105.817 71.7227 104.219 69.9087 103.111C68.0947 102.003 66.0046 101.43 63.8792 101.459ZM63.8792 116.49C62.8823 116.49 61.9263 116.094 61.2214 115.389C60.5165 114.684 60.1204 113.728 60.1204 112.731C60.1204 111.734 60.5165 110.778 61.2214 110.073C61.9263 109.369 62.8823 108.973 63.8792 108.973C64.8761 108.973 65.8321 109.369 66.537 110.073C67.2419 110.778 67.638 111.734 67.638 112.731C67.638 113.728 67.2419 114.684 66.537 115.389C65.8321 116.094 64.8761 116.49 63.8792 116.49ZM124 63.8792C124.007 61.8672 123.475 59.8901 122.46 58.1528C121.445 56.4156 119.984 54.9815 118.228 53.9993C116.472 53.0172 114.486 52.5227 112.474 52.5672C110.463 52.6117 108.5 53.1936 106.789 54.2525C105.078 55.3114 103.682 56.8087 102.745 58.5892C101.808 60.3696 101.364 62.3684 101.46 64.3781C101.556 66.3877 102.188 68.3352 103.29 70.0183C104.392 71.7015 105.925 73.0591 107.729 73.9503C106.104 81.0844 102.768 87.7161 98.0085 93.2734C93.2492 98.8307 87.2093 103.147 80.41 105.849L83.1922 112.727C91.2697 109.533 98.4309 104.389 104.037 97.754C109.643 91.119 113.519 83.1995 115.32 74.7021C117.766 74.1236 119.949 72.7444 121.521 70.7835C123.094 68.8226 123.966 66.3926 124 63.8792ZM112.724 67.638C111.727 67.638 110.771 67.2419 110.066 66.537C109.361 65.8321 108.965 64.8761 108.965 63.8792C108.965 62.8823 109.361 61.9263 110.066 61.2214C110.771 60.5165 111.727 60.1204 112.724 60.1204C113.72 60.1204 114.677 60.5165 115.381 61.2214C116.086 61.9263 116.482 62.8823 116.482 63.8792C116.482 64.8761 116.086 65.8321 115.381 66.537C114.677 67.2419 113.72 67.638 112.724 67.638Z" fill="#6750A4"/>
<path d="M74.3616 63.3564C76.4995 61.2688 77.9667 58.5913 78.5759 55.6659C79.185 52.7406 78.9083 49.7 77.7813 46.9326C76.6543 44.1651 74.7279 41.7964 72.2484 40.1289C69.7688 38.4614 66.8485 37.5708 63.8603 37.5708C60.8722 37.5708 57.9519 38.4614 55.4723 40.1289C52.9927 41.7964 51.0664 44.1651 49.9394 46.9326C48.8123 49.7 48.5357 52.7406 49.1448 55.6659C49.7539 58.5913 51.2212 61.2688 53.3591 63.3564C50.8148 65.0761 48.7308 67.3931 47.2892 70.1047C45.8476 72.8162 45.0925 75.8397 45.0898 78.9106V86.4243H82.6657V78.9068C82.6592 75.8327 81.8987 72.8072 80.451 70.0954C79.0032 67.3835 76.9123 65.0722 74.3616 63.3564ZM56.3622 52.6033C56.3622 51.6161 56.5567 50.6385 56.9345 49.7264C57.3122 48.8144 57.866 47.9857 58.564 47.2876C59.2621 46.5895 60.0908 46.0358 61.0029 45.658C61.915 45.2802 62.8925 45.0858 63.8797 45.0858C64.8669 45.0858 65.8445 45.2802 66.7565 45.658C67.6686 46.0358 68.4973 46.5895 69.1954 47.2876C69.8935 47.9857 70.4472 48.8144 70.825 49.7264C71.2028 50.6385 71.3972 51.6161 71.3972 52.6033C71.3972 54.597 70.6052 56.5091 69.1954 57.9189C67.7856 59.3287 65.8735 60.1208 63.8797 60.1208C61.886 60.1208 59.9738 59.3287 58.564 57.9189C57.1542 56.5091 56.3622 54.597 56.3622 52.6033ZM52.6035 78.9068C52.5757 77.4086 52.8468 75.92 53.4009 74.5278C53.955 73.1356 54.781 71.8678 55.8307 70.7985C56.8804 69.7292 58.1326 68.8798 59.5143 68.3C60.896 67.7201 62.3794 67.4215 63.8778 67.4215C65.3762 67.4215 66.8596 67.7201 68.2412 68.3C69.6229 68.8798 70.8752 69.7292 71.9249 70.7985C72.9745 71.8678 73.8005 73.1356 74.3547 74.5278C74.9088 75.92 75.1799 77.4086 75.1521 78.9068H52.6035Z" fill="#6750A4"/>
</g>
<defs>
<clipPath id="clip0_416_9956">
<rect width="124" height="124" fill="white"/>
</clipPath>
</defs>
</svg>
