<svg width="124" height="124" viewBox="0 0 124 124" fill="none" xmlns="http://www.w3.org/2000/svg">
<path d="M108.5 72.3333V98.1667C108.5 100.907 107.411 103.536 105.473 105.473C103.536 107.411 100.907 108.5 98.1667 108.5H25.8333C23.0928 108.5 20.4644 107.411 18.5266 105.473C16.5887 103.536 15.5 100.907 15.5 98.1667V25.8333C15.5 23.0928 16.5887 20.4644 18.5266 18.5266C20.4644 16.5887 23.0928 15.5 25.8333 15.5H51.6667V25.8333H25.8333V98.1667H98.1667V72.3333H108.5Z" fill="#6750A4"/>
<path d="M108.5 36.1667H87.833V15.5H77.4997V36.1667H56.833V46.5H77.4997V67.1667H87.833V46.5H108.5V36.1667Z" fill="#6750A4"/>
</svg>
