<svg width="26" height="27" viewBox="0 0 26 27" fill="none" xmlns="http://www.w3.org/2000/svg">
<path fill-rule="evenodd" clip-rule="evenodd" d="M16.4351 15.5629H15.7124L15.4563 15.3159C16.3528 14.273 16.8925 12.9191 16.8925 11.4463C16.8925 8.16209 14.2304 5.5 10.9463 5.5C7.66209 5.5 5 8.16209 5 11.4463C5 14.7304 7.66209 17.3925 10.9463 17.3925C12.4191 17.3925 13.773 16.8528 14.8159 15.9563L15.0629 16.2124V16.9351L19.6369 21.5L21 20.1369L16.4351 15.5629ZM10.9464 15.5629C8.66852 15.5629 6.82975 13.7241 6.82975 11.4462C6.82975 9.16835 8.66852 7.32959 10.9464 7.32959C13.2243 7.32959 15.063 9.16835 15.063 11.4462C15.063 13.7241 13.2243 15.5629 10.9464 15.5629Z" fill="#6750A4"/>
</svg>
