<svg width="40" height="40" viewBox="0 0 40 40" fill="none" xmlns="http://www.w3.org/2000/svg">
<g id="icones adm">
<path id="Vector" d="M21.6667 18.3333C22.6556 18.3333 23.6223 18.04 24.4445 17.4906C25.2668 16.9412 25.9076 16.1603 26.2861 15.2467C26.6645 14.333 26.7635 13.3277 26.5706 12.3578C26.3777 11.3879 25.9015 10.497 25.2022 9.79772C24.5029 9.09846 23.612 8.62225 22.6421 8.42933C21.6722 8.2364 20.6669 8.33542 19.7532 8.71386C18.8396 9.09229 18.0587 9.73316 17.5093 10.5554C16.9599 11.3776 16.6667 12.3443 16.6667 13.3333C16.6667 14.6593 17.1934 15.9311 18.1311 16.8688C19.0688 17.8065 20.3406 18.3333 21.6667 18.3333ZM21.6667 11.6666C21.9963 11.6666 22.3185 11.7643 22.5926 11.9475C22.8667 12.1306 23.0803 12.3909 23.2065 12.6954C23.3326 13 23.3656 13.3351 23.3013 13.6584C23.237 13.9817 23.0783 14.2787 22.8452 14.5118C22.6121 14.7449 22.3151 14.9036 21.9918 14.9679C21.6685 15.0322 21.3334 14.9992 21.0289 14.8731C20.7243 14.7469 20.464 14.5333 20.2809 14.2592C20.0977 13.9851 20 13.6629 20 13.3333C20 12.8912 20.1756 12.4673 20.4882 12.1547C20.8007 11.8422 21.2246 11.6666 21.6667 11.6666ZM28.5167 18.0999C29.4918 16.7016 30.0146 15.0379 30.0146 13.3333C30.0146 11.6286 29.4918 9.96487 28.5167 8.56659C28.9959 8.41201 29.4964 8.33328 30 8.33325C31.3261 8.33325 32.5979 8.86004 33.5355 9.79772C34.4732 10.7354 35 12.0072 35 13.3333C35 14.6593 34.4732 15.9311 33.5355 16.8688C32.5979 17.8065 31.3261 18.3333 30 18.3333C29.4964 18.3332 28.9959 18.2545 28.5167 18.0999ZM21.6667 21.6666C11.6667 21.6666 11.6667 28.3333 11.6667 28.3333V31.6666H31.6667V28.3333C31.6667 28.3333 31.6667 21.6666 21.6667 21.6666ZM15 28.3333C15 27.8499 15.5333 24.9999 21.6667 24.9999C27.5 24.9999 28.2333 27.5999 28.3333 28.3333M40 28.3333V31.6666H35V28.3333C34.9611 27.0943 34.6757 25.8756 34.1606 24.7481C33.6455 23.6207 32.9111 22.6071 32 21.7666C40 22.5833 40 28.3333 40 28.3333ZM13.3333 19.9999H8.33333V24.9999H5V19.9999H0V16.6666H5V11.6666H8.33333V16.6666H13.3333V19.9999Z" fill="white"/>
</g>
</svg>
