<svg width="40" height="40" viewBox="0 0 40 40" fill="none" xmlns="http://www.w3.org/2000/svg">
<g clip-path="url(#clip0_416_12134)">
<path d="M24.1339 4.0126C23.9403 3.17739 23.458 2.43739 22.7719 1.92318C22.0859 1.40897 21.2403 1.15359 20.3843 1.20212C19.5284 1.25066 18.7171 1.59997 18.0936 2.18843C17.4701 2.77689 17.0745 3.56667 16.9766 4.4184C16.8786 5.27014 17.0847 6.12908 17.5585 6.84366C18.0322 7.55824 18.7431 8.08254 19.5657 8.32402C20.3883 8.5655 21.2698 8.50866 22.0546 8.16351C22.8394 7.81837 23.4771 7.20711 23.8551 6.4376C26.1563 6.96162 28.2955 8.03755 30.0881 9.5726C31.8808 11.1076 33.2732 13.0557 34.1451 15.2489L36.3638 14.3764C35.3368 11.7751 33.6829 9.4679 31.5493 7.65985C29.4157 5.85181 26.8684 4.59893 24.1339 4.0126ZM20.6063 6.0601C20.4439 6.06532 20.2821 6.03783 20.1305 5.97928C19.9789 5.92072 19.8407 5.8323 19.7239 5.71925C19.6072 5.6062 19.5144 5.47084 19.451 5.32121C19.3876 5.17158 19.3549 5.01073 19.3549 4.84823C19.3549 4.68572 19.3876 4.52488 19.451 4.37525C19.5144 4.22562 19.6072 4.09025 19.7239 3.97721C19.8407 3.86416 19.9789 3.77573 20.1305 3.71717C20.2821 3.65862 20.4439 3.63113 20.6063 3.63635C20.9279 3.63635 21.2363 3.7641 21.4637 3.99148C21.6911 4.21887 21.8188 4.52728 21.8188 4.84885C21.8188 5.17043 21.6911 5.47883 21.4637 5.70622C21.2363 5.93361 20.9279 6.0601 20.6063 6.0601ZM15.2726 7.0676L14.3764 4.8501C11.7751 5.87717 9.4679 7.53103 7.65985 9.66466C5.85181 11.7983 4.59893 14.3456 4.0126 17.0801C3.17739 17.2737 2.43739 17.756 1.92318 18.442C1.40897 19.128 1.15359 19.9736 1.20212 20.8296C1.25066 21.6856 1.59997 22.4969 2.18843 23.1204C2.77689 23.7439 3.56667 24.1395 4.4184 24.2374C5.27014 24.3353 6.12908 24.1292 6.84366 23.6555C7.55824 23.1818 8.08254 22.4709 8.32402 21.6483C8.5655 20.8256 8.50866 19.9441 8.16351 19.1593C7.81837 18.3745 7.20711 17.7369 6.4376 17.3589C6.96377 15.0549 8.04321 12.9139 9.58258 11.1208C11.1219 9.32767 13.0749 7.93652 15.2726 7.0676ZM4.8476 21.8201C4.68837 21.8201 4.53071 21.7887 4.3836 21.7278C4.23649 21.6669 4.10283 21.5776 3.99023 21.465C3.87764 21.3524 3.78833 21.2187 3.7274 21.0716C3.66646 20.9245 3.6351 20.7668 3.6351 20.6076C3.6351 20.4484 3.66646 20.2907 3.7274 20.1436C3.78833 19.9965 3.87764 19.8628 3.99023 19.7502C4.10283 19.6376 4.23649 19.5483 4.3836 19.4874C4.53071 19.4265 4.68837 19.3951 4.8476 19.3951C5.16918 19.3951 5.47758 19.5228 5.70497 19.7502C5.93236 19.9776 6.0601 20.286 6.0601 20.6076C6.0601 20.9292 5.93236 21.2376 5.70497 21.465C5.47758 21.6924 5.16918 21.8201 4.8476 21.8201ZM20.6063 32.7289C19.9301 32.7311 19.2679 32.9217 18.694 33.2794C18.1202 33.6371 17.6574 34.1477 17.3576 34.7539C15.0561 34.2299 12.9165 33.1539 11.1236 31.6186C9.33072 30.0833 7.93825 28.1348 7.06635 25.9414L4.84885 26.8376C5.87926 29.4432 7.53866 31.7533 9.67898 33.5617C11.8193 35.37 14.374 36.6204 17.1151 37.2014C17.2726 37.8687 17.6154 38.4779 18.1042 38.9588C18.5929 39.4397 19.2076 39.7727 19.8774 39.9193C20.5472 40.066 21.2448 40.0204 21.8898 39.7877C22.5347 39.555 23.1008 39.1448 23.5227 38.6043C23.9446 38.0638 24.2052 37.4151 24.2743 36.7329C24.3435 36.0507 24.2184 35.3629 23.9136 34.7488C23.6087 34.1346 23.1365 33.6191 22.5514 33.2617C21.9662 32.9043 21.2919 32.7196 20.6063 32.7289ZM20.6063 37.5776C20.2848 37.5776 19.9764 37.4499 19.749 37.2225C19.5216 36.9951 19.3939 36.6867 19.3939 36.3651C19.3939 36.0435 19.5216 35.7351 19.749 35.5077C19.9764 35.2803 20.2848 35.1526 20.6063 35.1526C20.9279 35.1526 21.2363 35.2803 21.4637 35.5077C21.6911 35.7351 21.8188 36.0435 21.8188 36.3651C21.8188 36.6867 21.6911 36.9951 21.4637 37.2225C21.2363 37.4499 20.9279 37.5776 20.6063 37.5776ZM40.0001 20.6064C40.0023 19.9573 39.8308 19.3195 39.5035 18.7591C39.1761 18.1987 38.7047 17.7361 38.1383 17.4193C37.5719 17.1025 36.931 16.943 36.2821 16.9573C35.6333 16.9717 35.0001 17.1594 34.4482 17.501C33.8963 17.8425 33.4459 18.3256 33.1437 18.8999C32.8414 19.4742 32.6983 20.119 32.7293 20.7673C32.7602 21.4156 32.964 22.0438 33.3196 22.5867C33.6751 23.1297 34.1695 23.5676 34.7514 23.8551C34.2272 26.1564 33.1511 28.2957 31.6158 30.0884C30.0805 31.881 28.1322 33.2733 25.9389 34.1451L26.8363 36.3639C29.442 35.3334 31.7521 33.674 33.5604 31.5337C35.3688 29.3934 36.6192 26.8387 37.2001 24.0976C37.9892 23.911 38.6933 23.4661 39.2006 22.8335C39.7079 22.201 39.9893 21.4171 40.0001 20.6064ZM36.3626 21.8189C36.041 21.8189 35.7326 21.6911 35.5052 21.4637C35.2778 21.2363 35.1501 20.9279 35.1501 20.6064C35.1501 20.2848 35.2778 19.9764 35.5052 19.749C35.7326 19.5216 36.041 19.3939 36.3626 19.3939C36.6842 19.3939 36.9926 19.5216 37.22 19.749C37.4474 19.9764 37.5751 20.2848 37.5751 20.6064C37.5751 20.9279 37.4474 21.2363 37.22 21.4637C36.9926 21.6911 36.6842 21.8189 36.3626 21.8189Z" fill="#414141"/>
<path d="M23.9874 20.4376C24.6771 19.7641 25.1504 18.9004 25.3469 17.9568C25.5434 17.0131 25.4541 16.0323 25.0906 15.1396C24.727 14.2468 24.1056 13.4827 23.3057 12.9448C22.5059 12.4069 21.5638 12.1196 20.5999 12.1196C19.636 12.1196 18.694 12.4069 17.8941 12.9448C17.0942 13.4827 16.4729 14.2468 16.1093 15.1396C15.7457 16.0323 15.6565 17.0131 15.853 17.9568C16.0495 18.9004 16.5228 19.7641 17.2124 20.4376C16.3917 20.9923 15.7194 21.7397 15.2544 22.6144C14.7894 23.4891 14.5458 24.4644 14.5449 25.4551V27.8788H26.6662V25.4538C26.6641 24.4622 26.4188 23.4862 25.9517 22.6114C25.4847 21.7366 24.8102 20.991 23.9874 20.4376ZM18.1812 16.9688C18.1812 16.6504 18.2439 16.335 18.3658 16.0408C18.4876 15.7466 18.6663 15.4793 18.8914 15.2541C19.1166 15.0289 19.3839 14.8503 19.6782 14.7284C19.9724 14.6065 20.2877 14.5438 20.6062 14.5438C20.9246 14.5438 21.24 14.6065 21.5342 14.7284C21.8284 14.8503 22.0957 15.0289 22.3209 15.2541C22.5461 15.4793 22.7247 15.7466 22.8466 16.0408C22.9684 16.335 23.0312 16.6504 23.0312 16.9688C23.0312 17.612 22.7757 18.2288 22.3209 18.6835C21.8661 19.1383 21.2493 19.3938 20.6062 19.3938C19.963 19.3938 19.3462 19.1383 18.8914 18.6835C18.4367 18.2288 18.1812 17.612 18.1812 16.9688ZM16.9687 25.4538C16.9597 24.9705 17.0472 24.4903 17.2259 24.0412C17.4047 23.5921 17.6711 23.1832 18.0097 22.8382C18.3483 22.4933 18.7523 22.2193 19.198 22.0323C19.6437 21.8452 20.1222 21.7489 20.6055 21.7489C21.0889 21.7489 21.5674 21.8452 22.0131 22.0323C22.4588 22.2193 22.8628 22.4933 23.2014 22.8382C23.54 23.1832 23.8064 23.5921 23.9852 24.0412C24.1639 24.4903 24.2514 24.9705 24.2424 25.4538H16.9687Z" fill="#414141"/>
</g>
<defs>
<clipPath id="clip0_416_12134">
<rect width="40" height="40" fill="white"/>
</clipPath>
</defs>
</svg>
