<svg width="40" height="40" viewBox="0 0 40 40" fill="none" xmlns="http://www.w3.org/2000/svg">
<path d="M16.667 13.3335V23.3335L24.5003 28.1668L25.8337 26.1668L19.167 22.1668V13.3335H16.667Z" fill="#414141"/>
<path d="M29.8663 19.9998C30.1176 21.6564 30.0068 23.3477 29.5416 24.9574C29.0765 26.567 28.268 28.0567 27.1719 29.3239C26.0757 30.5912 24.718 31.6058 23.1921 32.2979C21.6662 32.99 20.0085 33.3432 18.333 33.3332C11.833 33.3332 6.66634 28.1665 6.66634 21.6665C6.66634 15.1665 11.833 9.99984 18.333 9.99984C19.4997 9.99984 20.6163 10.1665 21.6663 10.4832V7.04984C20.5997 6.79984 19.483 6.6665 18.333 6.6665C9.99967 6.6665 3.33301 13.3332 3.33301 21.6665C3.33301 29.9998 9.99967 36.6665 18.333 36.6665C20.4458 36.6753 22.5364 36.2358 24.4669 35.377C26.3973 34.5182 28.1236 33.2597 29.5317 31.6845C30.9399 30.1094 31.998 28.2535 32.636 26.2393C33.274 24.2251 33.4775 22.0985 33.233 19.9998H29.8663Z" fill="#414141"/>
<path d="M33.3333 8.3335V3.3335H30V8.3335H25V11.6668H30V16.6668H33.3333V11.6668H38.3333V8.3335H33.3333Z" fill="#414141"/>
</svg>
