<svg width="40" height="40" viewBox="0 0 40 40" fill="none" xmlns="http://www.w3.org/2000/svg">
<path d="M21.6667 18.3335C22.6556 18.3335 23.6223 18.0403 24.4445 17.4908C25.2668 16.9414 25.9076 16.1605 26.2861 15.2469C26.6645 14.3333 26.7635 13.328 26.5706 12.358C26.3777 11.3881 25.9015 10.4972 25.2022 9.79796C24.5029 9.0987 23.612 8.6225 22.6421 8.42957C21.6722 8.23665 20.6669 8.33566 19.7532 8.7141C18.8396 9.09254 18.0587 9.7334 17.5093 10.5556C16.9599 11.3779 16.6667 12.3446 16.6667 13.3335C16.6667 14.6596 17.1934 15.9314 18.1311 16.869C19.0688 17.8067 20.3406 18.3335 21.6667 18.3335ZM21.6667 11.6668C21.9963 11.6668 22.3185 11.7646 22.5926 11.9477C22.8667 12.1309 23.0803 12.3911 23.2065 12.6957C23.3326 13.0002 23.3656 13.3353 23.3013 13.6586C23.237 13.982 23.0783 14.2789 22.8452 14.512C22.6121 14.7451 22.3151 14.9038 21.9918 14.9681C21.6685 15.0324 21.3334 14.9994 21.0289 14.8733C20.7243 14.7472 20.464 14.5335 20.2809 14.2594C20.0977 13.9854 20 13.6631 20 13.3335C20 12.8915 20.1756 12.4675 20.4882 12.155C20.8007 11.8424 21.2246 11.6668 21.6667 11.6668ZM28.5167 18.1002C29.4918 16.7019 30.0146 15.0382 30.0146 13.3335C30.0146 11.6288 29.4918 9.96511 28.5167 8.56683C28.9959 8.41225 29.4964 8.33353 30 8.3335C31.3261 8.3335 32.5979 8.86028 33.5355 9.79796C34.4732 10.7356 35 12.0074 35 13.3335C35 14.6596 34.4732 15.9314 33.5355 16.869C32.5979 17.8067 31.3261 18.3335 30 18.3335C29.4964 18.3335 28.9959 18.2547 28.5167 18.1002ZM21.6667 21.6668C11.6667 21.6668 11.6667 28.3335 11.6667 28.3335V31.6668H31.6667V28.3335C31.6667 28.3335 31.6667 21.6668 21.6667 21.6668ZM15 28.3335C15 27.8502 15.5333 25.0002 21.6667 25.0002C27.5 25.0002 28.2333 27.6002 28.3333 28.3335M40 28.3335V31.6668H35V28.3335C34.9611 27.0946 34.6757 25.8758 34.1606 24.7484C33.6455 23.6209 32.9111 22.6073 32 21.7668C40 22.5835 40 28.3335 40 28.3335ZM13.3333 20.0002H8.33333V25.0002H5V20.0002H0V16.6668H5V11.6668H8.33333V16.6668H13.3333V20.0002Z" fill="white"/>
</svg>
