<svg width="124" height="124" viewBox="0 0 124 124" fill="none" xmlns="http://www.w3.org/2000/svg">
<path d="M31 54.25H54.25V124H31V54.25ZM38.75 116.25H46.5V62H38.75V116.25ZM62 69.75H85.25V124H62V69.75ZM69.75 116.25H77.5V77.5H69.75V116.25ZM0 85.25H23.25V124H0V85.25ZM7.75 116.25H15.5V93H7.75V116.25ZM93 38.75H116.25V124H93V38.75ZM100.75 116.25H108.5V46.5H100.75V116.25ZM84.0996 37.5996C84.8665 39.2546 85.25 40.9297 85.25 42.625C85.25 44.2396 84.9473 45.7533 84.3418 47.166C83.7363 48.5788 82.9089 49.8099 81.8594 50.8594C80.8099 51.9089 79.5788 52.7363 78.166 53.3418C76.7533 53.9473 75.2396 54.25 73.625 54.25C72.0104 54.25 70.4967 53.9473 69.084 53.3418C67.6712 52.7363 66.4401 51.9089 65.3906 50.8594C64.3411 49.8099 63.5137 48.5788 62.9082 47.166C62.3027 45.7533 62 44.2396 62 42.625V41.8984C62 41.6562 62.0202 41.4141 62.0605 41.1719L50.6777 35.4805C49.6283 36.5299 48.3971 37.3372 46.9844 37.9023C45.5716 38.4674 44.1185 38.75 42.625 38.75C40.9297 38.75 39.2546 38.3665 37.5996 37.5996L22.0996 53.0996C22.8665 54.7546 23.25 56.4297 23.25 58.125C23.25 59.7396 22.9473 61.2533 22.3418 62.666C21.7363 64.0788 20.9089 65.3099 19.8594 66.3594C18.8099 67.4089 17.5788 68.2363 16.166 68.8418C14.7533 69.4473 13.2396 69.75 11.625 69.75C10.0104 69.75 8.49675 69.4473 7.08398 68.8418C5.67122 68.2363 4.4401 67.4089 3.39062 66.3594C2.34115 65.3099 1.51367 64.0788 0.908203 62.666C0.302734 61.2533 0 59.7396 0 58.125C0 56.5104 0.302734 54.9967 0.908203 53.584C1.51367 52.1712 2.34115 50.9401 3.39062 49.8906C4.4401 48.8411 5.67122 48.0137 7.08398 47.4082C8.49675 46.8027 10.0104 46.5 11.625 46.5C13.3203 46.5 14.9954 46.8835 16.6504 47.6504L32.1504 32.1504C31.3835 30.4954 31 28.8203 31 27.125C31 25.5104 31.3027 23.9967 31.9082 22.584C32.5137 21.1712 33.3411 19.9401 34.3906 18.8906C35.4401 17.8411 36.6712 17.0137 38.084 16.4082C39.4967 15.8027 41.0104 15.5 42.625 15.5C44.2396 15.5 45.7533 15.8027 47.166 16.4082C48.5788 17.0137 49.8099 17.8411 50.8594 18.8906C51.9089 19.9401 52.7363 21.1712 53.3418 22.584C53.9473 23.9967 54.25 25.5104 54.25 27.125V27.8516C54.25 28.0938 54.2298 28.3359 54.1895 28.5781L65.5723 34.2695C66.6217 33.2201 67.8529 32.4128 69.2656 31.8477C70.6784 31.2826 72.1315 31 73.625 31C75.3203 31 76.9954 31.3835 78.6504 32.1504L94.1504 16.6504C93.3835 14.9954 93 13.3203 93 11.625C93 10.0104 93.3027 8.49675 93.9082 7.08398C94.5137 5.67122 95.3411 4.4401 96.3906 3.39062C97.4401 2.34115 98.6712 1.51367 100.084 0.908203C101.497 0.302734 103.01 0 104.625 0C106.24 0 107.753 0.302734 109.166 0.908203C110.579 1.51367 111.81 2.34115 112.859 3.39062C113.909 4.4401 114.736 5.67122 115.342 7.08398C115.947 8.49675 116.25 10.0104 116.25 11.625C116.25 13.2396 115.947 14.7533 115.342 16.166C114.736 17.5788 113.909 18.8099 112.859 19.8594C111.81 20.9089 110.579 21.7363 109.166 22.3418C107.753 22.9473 106.24 23.25 104.625 23.25C102.93 23.25 101.255 22.8665 99.5996 22.0996L84.0996 37.5996ZM11.625 62C12.6745 62 13.5827 61.6165 14.3496 60.8496C15.1165 60.0827 15.5 59.1745 15.5 58.125C15.5 57.0755 15.1165 56.1673 14.3496 55.4004C13.5827 54.6335 12.6745 54.25 11.625 54.25C10.5755 54.25 9.66732 54.6335 8.90039 55.4004C8.13346 56.1673 7.75 57.0755 7.75 58.125C7.75 59.1745 8.13346 60.0827 8.90039 60.8496C9.66732 61.6165 10.5755 62 11.625 62ZM104.625 7.75C103.576 7.75 102.667 8.13346 101.9 8.90039C101.133 9.66732 100.75 10.5755 100.75 11.625C100.75 12.6745 101.133 13.5827 101.9 14.3496C102.667 15.1165 103.576 15.5 104.625 15.5C105.674 15.5 106.583 15.1165 107.35 14.3496C108.117 13.5827 108.5 12.6745 108.5 11.625C108.5 10.5755 108.117 9.66732 107.35 8.90039C106.583 8.13346 105.674 7.75 104.625 7.75ZM42.625 31C43.6745 31 44.5827 30.6165 45.3496 29.8496C46.1165 29.0827 46.5 28.1745 46.5 27.125C46.5 26.0755 46.1165 25.1673 45.3496 24.4004C44.5827 23.6335 43.6745 23.25 42.625 23.25C41.5755 23.25 40.6673 23.6335 39.9004 24.4004C39.1335 25.1673 38.75 26.0755 38.75 27.125C38.75 28.1745 39.1335 29.0827 39.9004 29.8496C40.6673 30.6165 41.5755 31 42.625 31ZM73.625 46.5C74.6745 46.5 75.5827 46.1165 76.3496 45.3496C77.1165 44.5827 77.5 43.6745 77.5 42.625C77.5 41.5755 77.1165 40.6673 76.3496 39.9004C75.5827 39.1335 74.6745 38.75 73.625 38.75C72.5755 38.75 71.6673 39.1335 70.9004 39.9004C70.1335 40.6673 69.75 41.5755 69.75 42.625C69.75 43.6745 70.1335 44.5827 70.9004 45.3496C71.6673 46.1165 72.5755 46.5 73.625 46.5Z" fill="#6750A4"/>
</svg>
