<svg width="34" height="34" viewBox="0 0 34 34" fill="none" xmlns="http://www.w3.org/2000/svg">
<path d="M11.2613 19.5002H4.80301C3.94733 19.505 3.12835 19.8483 2.525 20.4551C1.92166 21.0619 1.58299 21.8828 1.58301 22.7385V29.1968C1.58301 30.0508 1.92226 30.8698 2.52612 31.4737C3.12999 32.0776 3.94901 32.4168 4.80301 32.4168H11.2613C12.1169 32.4168 12.9376 32.0781 13.5441 31.4747C14.1507 30.8713 14.4936 30.0524 14.498 29.1968V22.7385C14.498 21.8801 14.157 21.0568 13.55 20.4498C12.943 19.8428 12.1198 19.5018 11.2613 19.5018M11.2613 1.5835H4.80301C4.38015 1.5835 3.96144 1.66678 3.57077 1.8286C3.1801 1.99042 2.82513 2.22761 2.52612 2.52661C2.22712 2.82562 1.98994 3.18059 1.82812 3.57126C1.6663 3.96192 1.58301 4.38064 1.58301 4.8035V11.2618C1.583 12.1174 1.92171 12.9381 2.52511 13.5446C3.1285 14.1511 3.94748 14.4941 4.80301 14.4985H11.2613C12.1198 14.4985 12.943 14.1575 13.55 13.5505C14.157 12.9435 14.498 12.1202 14.498 11.2618V4.8035C14.4936 3.94797 14.1507 3.12899 13.5441 2.52559C12.9376 1.9222 12.1169 1.58348 11.2613 1.5835ZM29.1963 1.5835H22.738C21.8825 1.58348 21.0617 1.9222 20.4552 2.52559C19.8487 3.12899 19.5057 3.94797 19.5013 4.8035V11.2618C19.5018 12.1201 19.8429 12.9431 20.4498 13.55C21.0567 14.1569 21.8797 14.4981 22.738 14.4985H29.1963C30.0519 14.4941 30.8709 14.1511 31.4742 13.5446C32.0776 12.9381 32.4164 12.1174 32.4163 11.2618V4.8035C32.4163 3.9495 32.0771 3.13048 31.4732 2.52661C30.8694 1.92275 30.0503 1.5835 29.1963 1.5835Z" stroke="white" stroke-width="3" stroke-linecap="round" stroke-linejoin="round"/>
<path d="M25.9467 20.0283V31.8883M20.0283 25.9717H31.8883" stroke="white" stroke-width="3" stroke-miterlimit="10" stroke-linecap="round"/>
</svg>
