<svg width="30" height="48" viewBox="0 0 30 48" fill="none" xmlns="http://www.w3.org/2000/svg">
<g clip-path="url(#clip0_271_4559)">
<path d="M29.4731 20.7924L25.7194 17.7331V12.8404C25.7194 12.2894 25.2711 11.8411 24.7201 11.8411H22.3582C21.8073 11.8411 21.359 12.2894 21.359 12.8404V14.1791L16.3433 10.0913C15.9805 9.79569 15.5023 9.63281 14.9968 9.63281C14.4934 9.63281 14.0175 9.79469 13.6566 10.0888L0.526892 20.7923C-0.0696704 21.2784 -0.0338785 21.7018 0.0405215 21.9109C0.11474 22.1196 0.353746 22.4697 1.12009 22.4697H2.91796V36.5454C2.91796 37.55 3.733 38.3671 4.73481 38.3671H10.4125C11.4058 38.3671 12.1839 37.5669 12.1839 36.5454V30.7732C12.1839 30.2785 12.6386 29.828 13.1377 29.828H16.9531C17.429 29.828 17.8161 30.2521 17.8161 30.7732V36.5454C17.8161 37.5329 18.669 38.3671 19.6784 38.3671H25.2652C26.267 38.3671 27.0821 37.5499 27.0821 36.5454V22.4697H28.8799C29.6463 22.4697 29.8852 22.1196 29.9595 21.9109C30.0339 21.7018 30.0697 21.2784 29.4731 20.7924Z" fill="#A155B9"/>
</g>
<defs>
<clipPath id="clip0_271_4559">
<rect width="30" height="30" fill="white" transform="translate(0 9)"/>
</clipPath>
</defs>
</svg>
