<svg width="124" height="124" viewBox="0 0 124 124" fill="none" xmlns="http://www.w3.org/2000/svg">
<path d="M51.667 41.3335V72.3335L75.9503 87.3168L80.0837 81.1168L59.417 68.7168V41.3335H51.667Z" fill="#6750A4"/>
<path d="M92.5863 61.9998C93.3651 67.1352 93.0217 72.3783 91.5797 77.3682C90.1378 82.3581 87.6315 86.9762 84.2335 90.9046C80.8354 94.8329 76.6264 97.9782 71.8962 100.124C67.166 102.269 62.027 103.364 56.833 103.333C36.683 103.333 20.6663 87.3165 20.6663 67.1665C20.6663 47.0165 36.683 30.9998 56.833 30.9998C60.4497 30.9998 63.9113 31.5165 67.1663 32.4982V21.8548C63.8597 21.0798 60.398 20.6665 56.833 20.6665C30.9997 20.6665 10.333 41.3332 10.333 67.1665C10.333 92.9998 30.9997 113.667 56.833 113.667C63.3827 113.694 69.8637 112.331 75.848 109.669C81.8323 107.007 87.1838 103.105 91.5491 98.2224C95.9144 93.3395 99.1943 87.5861 101.172 81.3421C103.15 75.0981 103.781 68.5056 103.023 61.9998H92.5863Z" fill="#6750A4"/>
<path d="M103.333 25.8335V10.3335H93V25.8335H77.5V36.1668H93V51.6668H103.333V36.1668H118.833V25.8335H103.333Z" fill="#6750A4"/>
</svg>
